<?xml version="1.0" encoding="utf-8"?>
<!-- Generator: Adobe Illustrator 24.0.0, SVG Export Plug-In . SVG Version: 6.00 Build 0)  -->
<svg version="1.1" id="Layer_1" xmlns="http://www.w3.org/2000/svg" xmlns:xlink="http://www.w3.org/1999/xlink" x="0px" y="0px"
	 viewBox="0 0 41.4 53.6" style="enable-background:new 0 0 41.4 53.6;" xml:space="preserve">
<style type="text/css">
	.st0{fill:#24AC7C;}
</style>
<g id="surface1">
	<path class="st0" d="M20.8,0l-4.5,4l-5.9-1.3L8.6,8.4l-5.8,1.8L4,16.1l-4,4.5L4,25l-1.3,5.9l5.7,1.9l0.3,0.9v20l12-4.8l12,4.8V33.3
		l0.1-0.3l5.7-1.8l-1.2-5.9l4.1-4.4l-4-4.5l1.3-5.9L33,8.6l-1.8-5.8L25.3,4L20.8,0z M20.8,5.4l3.3,3l1-0.2l3.4-0.7l1.3,4.3l4.2,1.4
		l-1,4.3l3,3.3l-3,3.3l0.9,4.4l-4.2,1.3L28.3,34L24,33l-3.3,3l-3.3-3L13,33.9l-0.3-0.8v-0.4h-0.1l-1-3l-4.2-1.4l1-4.3l-3-3.3l3-3.3
		L7.5,13l4.2-1.3l1.4-4.2l4.3,1L20.8,5.4z M20.7,10.7c-5.5,0-10,4.5-10,10s4.5,10,10,10s10-4.5,10-10S26.2,10.7,20.7,10.7z
		 M20.7,14.7c3.3,0,6,2.7,6,6s-2.7,6-6,6s-6-2.7-6-6S17.4,14.7,20.7,14.7z M16.1,37.3l4.4,4.1l4.5-4l3.6,0.8v9.5l-8-3.2l-8,3.2V38
		L16.1,37.3z"/>
</g>
</svg>
