<svg xmlns="http://www.w3.org/2000/svg" width="198" height="40" viewBox="0 0 198 40">
  <defs>
    <style>
      .cls-1 {
        font-size: 30px;
        fill: #1e266d;
        font-family: Jost;
        font-weight: 700;
      }

      .cls-2, .cls-3 {
        fill: #37b9ac;
      }

      .cls-3 {
        fill-rule: evenodd;
      }
    </style>
  </defs>
  <text id="Athenity Care_copy_4" data-name="Athenity Care copy 4" class="cls-1" x="46.118" y="30.3">SAVI<tspan class="cls-2">OUR</tspan></text>
  <path id="Shape_2_copy_8" data-name="Shape 2 copy 8" class="cls-3" d="M2202,37.014a2.134,2.134,0,0,0-.9.218c-0.06.024-7.66,3.781-15.1,3.781a2,2,0,0,0-2,2v6h36v-6a2,2,0,0,0-2-2c-7.42,0-15.04-3.757-15.1-3.781A1.92,1.92,0,0,0,2202,37.014Zm-18,16c0,17.18,16.6,23.6,17.3,23.875a1.945,1.945,0,0,0,.7.124,1.891,1.891,0,0,0,.69-0.124c0.71-.274,17.31-6.7,17.31-23.875h-36Z" transform="translate(-2184 -37)"/>
</svg>
