<?xml version="1.0" encoding="utf-8"?>
<!-- Generator: Adobe Illustrator 24.0.0, SVG Export Plug-In . SVG Version: 6.00 Build 0)  -->
<svg version="1.1"
	 id="svg2" xmlns:cc="http://creativecommons.org/ns#" xmlns:dc="http://purl.org/dc/elements/1.1/" xmlns:rdf="http://www.w3.org/1999/02/22-rdf-syntax-ns#" xmlns:svg="http://www.w3.org/2000/svg"
	 xmlns="http://www.w3.org/2000/svg" xmlns:xlink="http://www.w3.org/1999/xlink" x="0px" y="0px" viewBox="0 0 931.6 370.1"
	 style="enable-background:new 0 0 931.6 370.1;" xml:space="preserve">
<style type="text/css">
	.st0{fill:#E9F4F2;}
</style>
<g id="g10" transform="matrix(1.3333333,0,0,-1.3333333,0,732)">
	<g id="g12">
		<g>
			<g id="g14">
				<g id="g20" transform="translate(407.0771,319.3076)">
					<path id="path22" class="st0" d="M-43.3,126c-0.5,1.4-0.9,3-2.3,4.1c-1-1.5-0.2-2.7,0.1-3.8c1.9-8.3,2.2-16.6,0.6-25
						c-2.7-14.2-9.6-26.5-18.2-37.9c-9.5-12.5-21.2-22.9-32-34.2c-6.1-6.3-13.2-10.2-21.5-12.4c-2-0.5-4.6-1.8-6,0.2
						c-1.4,2,0.9,3.9,2.2,5.5c4.6,5.7,9.5,11.2,14.1,16.9c2.7,3.4,5.3,6.9,6.5,11.3c1,3.8-1.9,6.8-5.7,5.9c-1-0.2-2-0.7-2.9-1.2
						c-6.9-4.2-12.2-9.8-14.6-17.8c-1-3.2-2-6.5-3.9-9.4c-5.7-8.2-12.2-15.6-20.3-21.4c-3.7-2.6-7.7-4.6-12.1-5.4
						c-4.1-0.7-6.6,1.5-6.4,5.7c0.1,3.1,1.3,5.9,2.9,8.3c5.7,8.4,11.5,16.9,17.5,25.1c3.4,4.7,4.5,4.8,10,2.7
						c2.8-1.1,4.7-0.3,6.1,2.3c1.9,3.5,1.4,5.8-1.6,8.4c-4.5,3.7-10.4,3.7-14.9,0.1c-2-1.6-3.7-3.5-5.1-5.7
						c-2.5-4.1-5.1-8.1-7.6-12.2c-7-11.4-15.2-21.7-24.3-31.5c-4-4.2-9.3-5.4-14.5-7.3c-0.2,1.6,0.7,2.4,1.2,3.3
						c4.8,8.4,10.7,16.1,15.9,24.2c2.4,3.7,3.4,7.8,3.1,12.1c-0.1,1.5-0.6,2.9-2.3,3.5s-2.9-0.1-4-1.1c-1.6-1.5-2.5-3.4-3.3-5.4
						c-3.2-7.5-6.1-15.3-11.8-21.3c-5-5.2-9.3-10.7-12.2-17.3c-1.6-3.6-5.1-5.9-8.7-7.7c-0.8-0.4-1.8-1.1-2.6-0.2
						c-0.7,0.8-0.5,1.9-0.1,2.7c0.9,1.7,1.8,3.4,3,4.9c1.9,2.4,3.6,5,5.2,7.6c4.8,7.9,9.4,16,15.1,23.2c1.1,1.4,1.8,3.1,2.3,4.9
						c0.6,2.3-0.3,4-2.1,5.2c-1.8,1.2-3.2,0-4.5-1.2c-1.5-1.4-2.7-3-3.6-4.8c-6.3-12-14.6-22.7-21.8-34.1c-1.5-2.3-3.3-4.4-5.1-6.5
						c-3.2-3.8-7.3-5.7-12.2-5.9c-3.1-0.1-3.8,1-2.6,3.9c0.3,0.8,0.7,1.6,1.2,2.2c7.7,9.4,12.5,20.8,20,30.3c2.1,2.7,3.8,5.7,5,8.8
						c2,5.2,1,10.7-2.4,13.5c-3.6,2.9-8.7,2.7-13.6-0.6c-2.8-1.9-5.1-4.2-7.1-6.8c-10.2-12.7-19-26.4-27.3-40.4
						c-4.2-7.1-9-13.9-12.7-21.3c-0.8-1.7-0.7-3.1,0.8-4.3c1.4-1.2,2.6-0.3,3.7,0.5c0.8,0.5,1.4,1.3,2,2c1.7,2.3,3.2,4.8,4.9,7.1
						c7.8,10.5,15.7,20.9,22.1,32.4c2.2,4,4.9,7.7,7.8,11.3c1.7,2.2,3.5,4.3,6,5.6c1,0.5,2,0.7,3,0.1c1.1-0.7,1-1.8,0.8-2.9
						c-0.3-2.1-1.4-4-2.4-5.9c-4.1-7.5-9.5-14.1-14-21.3c-2.8-4.5-5.8-8.9-6.9-14.3c-0.7-3.7,0.9-6.2,4.5-7.1
						c3.9-1,7.6-0.3,11.1,1.4c1.9,0.9,3.8,2,5.6,3c2.5,1.4,4.4,1.2,6.3-1.2c2.7-3.3,5.9-3.7,9.7-1.7c2.8,1.4,5,3.6,7,6
						c1.4,1.6,2.8,3.2,4.3,4.7c1.3,1.3,2.9,1.8,4.6,0.8c4.8-2.8,9.2-1.6,13.4,1.3s8.3,5.9,12.5,8.8c4.1,2.9,4.5,2.8,6.1-1.9
						c1.3-3.8,4-5.2,7.7-5.4c4.4-0.2,8.3,1.2,12.3,2.8c7.3,3,12.7,8.4,17.9,14c2.1,2.3,4.4,3.2,7.2,0.9c3.9-3.2,8.2-2.9,12.6-1.5
						c10.4,3.2,19.2,9.1,27.1,16.3c15.3,14.4,27.2,31.4,38.5,49C-38.5,90-36.7,107.6-43.3,126"/>
				</g>
				<g id="g24" transform="translate(523.312,303.8091)">
					<path id="path26" class="st0" d="M-43.3,126c-3-8.5-7.9-15.6-14.3-22s-12.6-12.7-20.8-16.6c-2.7-1.3-5.4-2.5-8.5-2.5
						c-3.5,0-4.6,1.6-3.3,4.9c1,2.7,2.6,5.1,4.3,7.4c4.6,6.3,9.9,11.9,15.1,17.7c4.3,4.8,8.9,9.5,11.5,15.6c1,2.3,1.6,4.9-0.7,6.7
						c-2.2,1.8-4.6,0.9-6.8-0.6c-3.4-2.3-6-5.4-8.4-8.7c-8.9-12-15.9-25.4-27.3-35.6c-1.3-1.2-2.2-2.9-2.5-4.7
						c-0.4-2.3,1.1-4.8,2.9-4.3c3.8,1.1,5-1.3,6.2-3.9c1.4-2.9,3.7-4.1,6.9-4.2c5.1-0.1,9.5,1.8,13.8,4.3c6.4,3.7,11.5,9,16.7,14.2
						c3.5,3.6,4.9,3.6,7.8-0.4c2.5-3.4,5.7-4.4,9.6-4.8c7.4-0.6,14.3,1.4,21.1,4.1c13.7,5.6,25.9,13.8,37.7,22.5
						c14.5,10.7,27.8,22.7,37.7,38.1c10.2,15.9,12.5,32.6,5.2,51.1c-0.2-2.7-0.4-4.7-0.4-6.7c-0.3-23.3-9.1-43-25.9-59
						c-11.8-11.4-24.9-21.3-38.7-30.1c-9.7-6.2-20.2-10.3-31.8-11.4c-2.7-0.3-5.7-0.4-7.4,1.9c-1.6,2.3-0.1,4.7,1.1,6.8
						c0.6,1.1,1.3,2.2,2,3.2c3.7,5.1,7.7,9.9,12,14.5c2.6,2.8,5.1,5.7,6.6,9.3c1,2.6,1.4,5.2-0.9,7.4c-2.4,2.2-4.8,1.1-7-0.2
						C-35.8,136.9-41,132.6-43.3,126"/>
				</g>
				<g id="g28" transform="translate(518.9287,375.5645)">
					<path id="path30" class="st0" d="M-43.3,126c-7-10.4-15.1-19.9-23.8-29C-60.8,108-52.3,117.2-43.3,126 M176.6,163.8
						c-0.3,1.3-0.5,2.6-0.8,3.8l0,0c-0.2,0.8-0.4,1.7-0.6,2.5c-0.2,1.1-0.4,2.2-0.7,3.2c-0.6-1.2-0.8-2.3,0.1-3.2
						c0.1-0.9,0.8-1.9,0.7-2.2l-0.1-0.3c0.1-2.1,0.1-2.1,0.6-5.3l0,0c0.7-9.3,1.1-18.7-0.1-28c-2.8-21.9-11.2-41.5-24.4-59.1
						c-16.6-22.2-37.2-40.6-60-56.5c-26-18.1-54.5-30.7-85-39c-31.3-8.5-63-13.8-95.7-9.9c-10.2,1.2-20.1,3.5-29.5,7.5
						c-8,3.3-13,9-13.8,17.9c-0.5,5.8,1.4,11.1,3.5,16.3c1.1,2.9,2.9,5.7,2.6,8.8c-0.7,7.3,3.2,12.3,7.5,17.2
						c4.5,5.1,9.1,10.1,13.5,15.3c7.7,9,15.8,17.5,25.9,23.9c3.8,2.4,7.3,5.2,10.6,8.1c15.5,13.7,28.4,29.5,39.9,46.7
						c2.8,4.2,5.6,8.6,5.5,14c0,4.1-2.5,6-6.5,5c-6.3-1.6-10.3-6.3-14-11.1c-11.7-15-23-30.2-35.6-44.5c-4.9-5.6-9.1-11.7-13.8-17.5
						c-1.4-1.8-2.7-3.8-5-4.4c-1.2,0.9,0.5,3.5-1.8,3.2c-2.1-0.3-2.6-2.3-2-4.3c0-0.1,0-0.2,0.1-0.3c1.3-3.2,0.2-5.7-2-8.1
						c-1.8-1.8-3.4-3.8-5.1-5.7c-9.3-9.5-18-19.5-26.6-29.6c-7.7-9-13.9-19.1-21.7-27.9c-1.8-2.1-3.4-4.4-4.1-7.1
						c-0.5-1.9-0.4-3.6,1.4-4.8c1.8-1.2,3.4-0.7,4.9,0.6c2.2,1.8,3.5,4.3,5,6.6c2.5,3.8,5,7.7,8,11.1c0.6,0.6,1.2,1.5,2.1,1.3
						c1.2-0.4,0.7-1.7,0.6-2.5c-0.7-4.1-0.9-8.3-0.6-12.4c0.7-9.8,4.8-17.5,13.9-22c4.2-2.1,8.6-3.7,13-5.1
						c21.1-6.3,42.7-6.8,64.4-4.9c21,1.8,41.6,5.8,61.8,11.9C39.8-18.7,66-8,89.3,8.4c20.6,14.4,39.3,31.1,56.3,49.7
						c10,11,18.4,23.1,24.6,36.7c5.7,12.4,8.8,25.5,9.4,39.1C180.1,144,179.1,154,176.6,163.8"/>
				</g>
				<g id="g32" transform="translate(164.2866,197.7969)">
					<path id="path34" class="st0" d="M-43.3,126c-8.2-11.9-18.6-21.8-29.5-31.2c-3.7-3.2-7.4-6.4-11.6-8.9
						c-1.3-0.8-2.8-2.2-4.3-1.1c-1.6,1.1-0.9,3.2-0.7,4.8C-87.9,99.8-84,109-78,117.3c9.8,13.5,20,26.7,30.8,39.5
						c2.4,2.8,4.6,2.8,6.7-0.2c2.9-4.2,3.4-9,4-13.4C-36.8,136.2-39.9,130.9-43.3,126 M-27.3,146.5c0.4,6.4-3,11.3-6.8,16
						c-3.6,4.4-3.6,5.3,0.3,9.4c11,11.6,21.8,23.2,33,34.6c21.7,22.1,43.5,44,65.2,66c3.5,3.6,6.4,7.6,9,11.9
						c-1.9-0.4-3.4-1.4-4.8-2.5c-2.6-2.2-5.1-4.5-7.7-6.7c-10.7-8.9-21.3-17.9-31.5-27.4c-20-18.7-38.7-38.5-57.6-58.3
						c-3.9-4.1-7.6-8.3-11.5-12.4c-3.1-3.3-6.7-4.4-10.9-2.6c-1.6,0.7-3.3,0.8-5,0.6c-2.9-0.3-5.9-0.9-8.8-1.2
						c-1.5-0.1-3.6-1-4.4,0.5c-0.6,1.2,1.4,2.4,2.4,3.4c3.2,3.4,6.7,6.5,9.5,10.3c1.7,2.4,2.5,4.8,0.4,7.3c-2.2,2.6-4.7,1.1-6.9-0.2
						c-3.6-2-6.4-4.9-9.1-7.9c-25.8-29.1-51.6-58.2-77.3-87.4c-4.8-5.4-9.8-10.6-13-17.3c-0.8-1.7-1.6-3.5-1.6-5.4
						c-0.1-1.6,0.8-2.6,2.1-3.3c1.3-0.7,2.3,0,3.1,0.8c2.2,2.2,4.5,4.3,6.4,6.7c14.6,18.2,29.3,36.4,45.3,53.5
						c8,8.6,16.5,16.6,26.8,22.4c7.6,4.3,15.5,8,24.5,8.2c1.4,0,3.2,0.5,4-1.3c0.6-1.5-0.7-2.5-1.5-3.6
						c-6.4-7.8-12.9-15.5-19.1-23.5c-8.8-11.2-17.5-22.5-21.9-36.4c-2.3-7.1-3.5-14.2-1.8-21.6c1-4.1,3.9-5.7,8-4.7
						c3.3,0.8,6.4,2.4,9.1,4.4c12.9,9.5,24.7,20.2,35.5,31.9c4.5,4.9,8.6,10.3,11.5,16.4C-29.4,133.3-27.7,139.8-27.3,146.5"/>
				</g>
			</g>
		</g>
	</g>
</g>
</svg>
