<?xml version="1.0" encoding="utf-8"?>
<!-- Generator: Adobe Illustrator 24.0.0, SVG Export Plug-In . SVG Version: 6.00 Build 0)  -->
<svg version="1.1" id="Layer_1" xmlns="http://www.w3.org/2000/svg" xmlns:xlink="http://www.w3.org/1999/xlink" x="0px" y="0px"
	 viewBox="0 0 44 48" style="enable-background:new 0 0 44 48;" xml:space="preserve">
<style type="text/css">
	.st0{fill:#24AC7C;}
</style>
<g id="surface1">
	<path class="st0" d="M28.1,0c-2.6,0-5.7,1-6.3,1.1C20.3,0.5,18.5,0,16.6,0c-5,0-9.2,1.6-12.1,4.4S0,11.2,0,15.7
		c0,3.4,1.3,6,2.6,8.4c1.3,2.3,2.6,4.4,3.4,7.1c0.9,3.2,1.5,7.1,2.5,10.3c0.5,1.6,1.1,3.1,2.1,4.3S13,48,14.8,48
		c1.7,0,3.3-0.9,4.2-2.2s1.1-2.9,1.1-4.6c0-2.1,0-5.3,0.4-7.8c0.2-1.3,0.6-2.3,0.9-2.9S21.7,30,22,30s0.3,0,0.6,0.6s0.7,1.6,0.9,2.9
		C24,36,24,39.2,24,41.3c0,1.7,0.2,3.2,1.1,4.6s2.5,2.2,4.2,2.2c1.8,0,3.3-1,4.2-2.3s1.6-2.8,2.1-4.4c1-3.2,1.6-7.1,2.5-10.3
		c0.7-2.6,2.1-4.7,3.4-7.1s2.6-5,2.6-8.4C44.1,6.6,37.2,0,28.1,0z M7.3,7.3c2.1-2,5.1-3.3,9.3-3.3c4.6,0,9.9,4.9,9.9,4.9L29.3,6
		c0,0-1.3-1-2.3-1.8C27.5,4.1,27.9,4,28.1,4c7.2,0,12,4.5,11.9,11.6v0.1c0,0.1,0,0.2,0,0.3H28v-4H16v4H4c0-0.1,0-0.2,0-0.3
		C4,12.1,5.2,9.3,7.3,7.3z M24,16v4h-4v-4H24z M37.9,22.1c-1.2,2.2-2.9,4.6-3.8,7.9c-1,3.5-1.6,7.3-2.4,10.1c-0.4,1.4-1,2.5-1.4,3.1
		c-0.5,0.6-0.6,0.7-1,0.7c-0.6,0-0.6-0.1-0.8-0.4s-0.5-1-0.5-2.2c0-2,0-5.4-0.5-8.5c-0.3-1.5-0.6-3-1.4-4.3S23.8,26,22,26
		s-3.3,1.1-4.1,2.4s-1.2,2.8-1.4,4.3C16,35.8,16,39.2,16,41.3c0,1.2-0.2,2.1-0.4,2.4S15.4,44,14.8,44c-0.4,0-0.5-0.1-1-0.7
		s-1-1.7-1.4-3.1c-0.9-2.8-1.5-6.7-2.4-10.2c-0.9-3.3-2.6-5.8-3.8-7.9C5.6,21.4,5.3,20.7,5,20h11v4h12v-4h11
		C38.7,20.7,38.4,21.4,37.9,22.1z"/>
</g>
</svg>
