<?xml version="1.0" encoding="utf-8"?>
<!-- Generator: Adobe Illustrator 24.0.0, SVG Export Plug-In . SVG Version: 6.00 Build 0)  -->
<svg version="1.1" id="Layer_1" xmlns="http://www.w3.org/2000/svg" xmlns:xlink="http://www.w3.org/1999/xlink" x="0px" y="0px"
	 viewBox="0 0 48 44" style="enable-background:new 0 0 48 44;" xml:space="preserve">
<style type="text/css">
	.st0{fill:#24AC7C;}
</style>
<g id="surface1">
	<path class="st0" d="M22,0v20.9l-6.8,4.8l-4.6-1.6l-1.4,3.8l2.8,0.9l-3.5,3.8l2.9,2.8l5.5-5.9l0.1-0.1l0.9-0.6c0,1.1,0.1,2,0.1,3.3
		c0,5.5-4,8-8,8H5.8c-1,0-1.8-1.1-1.8-1.8C4,24,11.7,14,14.2,14c0.6,0,2.4,0.7,3.3,7.5l2.6-1.8v-4.8c-1.2-3-3-4.9-5.8-4.9
		C8,10,0,23.7,0,38.2C0,41.3,2.7,44,5.8,44H10c7,0,12-5,12-12c0-2-0.1-4-0.2-6l2.2-1.6l2.2,1.6c-0.1,2-0.2,4-0.2,6c0,7,5,12,12,12
		h4.2c3.1,0,5.8-2.7,5.8-5.8C48,23.7,40,10,33.8,10c-2.8,0-4.6,1.9-5.8,4.9v4.8l2.6,1.8c0.9-6.8,2.6-7.5,3.3-7.5
		C36.3,14,44,24,44,38.2c0,0.7-0.8,1.8-1.8,1.8H38c-4,0-8-2.5-8-8c0-1.2,0-2.2,0.1-3.3l0.9,0.6l0.1,0.1l5.5,5.9l2.9-2.8L36,28.7
		l2.8-0.9L37.4,24l-4.6,1.6L26,20.9V0H22z"/>
</g>
</svg>
