<?xml version="1.0" encoding="utf-8"?>
<!-- Generator: Adobe Illustrator 24.0.0, SVG Export Plug-In . SVG Version: 6.00 Build 0)  -->
<svg version="1.1" id="Layer_1" xmlns="http://www.w3.org/2000/svg" xmlns:xlink="http://www.w3.org/1999/xlink" x="0px" y="0px"
	 viewBox="0 0 38 39" style="enable-background:new 0 0 38 39;" xml:space="preserve">
<style type="text/css">
	.st0{fill:#EFEFEF;}
	.st1{fill:#24AC7C;}
	.st2{fill:#197265;}
	.st3{fill:#B0BEC5;}
	.st4{fill:#A2DDC6;}
</style>
<g id="surface1">
	<path class="st0" d="M0,35V11h38v24c0,2.2-1.8,4-4,4H4C1.8,39,0,37.2,0,35z"/>
	<path class="st1" d="M38,7v6H0V7c0-2.2,1.8-4,4-4h30C36.2,3,38,4.8,38,7z"/>
	<path class="st2" d="M31,7c0,1.7-1.3,3-3,3s-3-1.3-3-3s1.3-3,3-3S31,5.3,31,7z"/>
	<path class="st2" d="M13,7c0,1.7-1.3,3-3,3S7,8.7,7,7s1.3-3,3-3S13,5.3,13,7z"/>
	<path class="st3" d="M28,0c-1.1,0-2,0.9-2,2v5c0,1.1,0.9,2,2,2s2-0.9,2-2V2C30,0.9,29.1,0,28,0z"/>
	<path class="st3" d="M10,0C8.9,0,8,0.9,8,2v5c0,1.1,0.9,2,2,2s2-0.9,2-2V2C12,0.9,11.1,0,10,0z"/>
	<path class="st4" d="M8,18h6v6H8V18z"/>
	<path class="st4" d="M16,18h6v6h-6V18z"/>
	<path class="st4" d="M24,18h6v6h-6V18z"/>
	<path class="st4" d="M8,26h6v6H8V26z"/>
	<path class="st4" d="M16,26h6v6h-6V26z"/>
	<path class="st1" d="M24,26h6v6h-6V26z"/>
</g>
</svg>
