<svg width="34" height="34" viewBox="0 0 34 34" fill="none" xmlns="http://www.w3.org/2000/svg">
<path d="M3 4.56471V7.61176C3.16471 18.4824 17.0824 30.8353 26.3882 31H29.4353C30.2588 31 31 30.3412 31 29.4353L30.9176 23.2588C30.9176 22.4353 30.1765 21.6941 29.3529 21.6941L22.6 21.5294L19.3059 25.4C17.1647 25.4 8.51765 16.7529 8.43529 14.5294L12.3059 10.9882L12.2235 4.64706C12.2235 3.82353 11.4824 3.08235 10.6588 3.08235L4.48235 3C3.65882 3 3 3.65882 3 4.56471Z" fill="#24AC7C"/>
<path d="M31 15H29.2857C29.2857 9.34286 24.6571 4.71429 19 4.71429V3C25.6 3 31 8.4 31 15Z" fill="#24AC7C"/>
<path d="M26 15C26 11.15 22.85 8 19 8" stroke="#24AC7C" stroke-width="2" stroke-miterlimit="10"/>
<path d="M22 15C22 13.3 20.7 12 19 12" stroke="#24AC7C" stroke-width="2" stroke-miterlimit="10"/>
</svg>
