<?xml version="1.0" encoding="utf-8"?>
<!-- Generator: Adobe Illustrator 24.0.0, SVG Export Plug-In . SVG Version: 6.00 Build 0)  -->
<svg version="1.1" id="Layer_1" xmlns="http://www.w3.org/2000/svg" xmlns:xlink="http://www.w3.org/1999/xlink" x="0px" y="0px"
	 viewBox="0 0 30 40" style="enable-background:new 0 0 30 40;" xml:space="preserve">
<style type="text/css">
	.st0{fill:#455A64;}
	.st1{fill:#24AC7C;}
</style>
<g id="surface1">
	<path class="st0" d="M18,2h6v22h-6V2z"/>
	<path class="st0" d="M10,29c-3.3,0-6-2.7-6-6v-3c0-3.3,2.7-6,6-6h6v-4h-6C4.5,10,0,14.5,0,20v3c0,5.5,4.5,10,10,10h17v-4H10z"/>
	<path class="st0" d="M0,40h30v-2c0-1.1-0.9-2-2-2H2c-1.1,0-2,0.9-2,2V40z"/>
	<path class="st0" d="M16,16h-5c-2.2,0-4-1.8-4-4s1.8-4,4-4h5V16z"/>
	<path class="st1" d="M24,22h-6c-1.1,0-2-0.9-2-2V4h10v16C26,21.1,25.1,22,24,22z"/>
	<path class="st1" d="M17,0h8v2h-8V0z"/>
	<path class="st1" d="M14,12c0,1.1-0.9,2-2,2s-2-0.9-2-2s0.9-2,2-2S14,10.9,14,12z"/>
	<path class="st1" d="M12.6,27.9c-0.4-0.6-1-0.9-1.7-0.9H9c-0.7,0-1.3,0.3-1.7,0.9L2,36h16L12.6,27.9z M10,33c-1.1,0-2-0.9-2-2
		s0.9-2,2-2s2,0.9,2,2C12,32.1,11.1,33,10,33z"/>
</g>
</svg>
