<?xml version="1.0" encoding="utf-8"?>
<!-- Generator: Adobe Illustrator 24.0.0, SVG Export Plug-In . SVG Version: 6.00 Build 0)  -->
<svg version="1.1" id="Layer_1" xmlns="http://www.w3.org/2000/svg" xmlns:xlink="http://www.w3.org/1999/xlink" x="0px" y="0px"
	 viewBox="0 0 40 38.1" style="enable-background:new 0 0 40 38.1;" xml:space="preserve">
<style type="text/css">
	.st0{fill:#19845B;}
	.st1{fill:#C3EAE4;}
	.st2{fill:#455A64;}
	.st3{fill:#263238;}
	.st4{fill:#24AC7C;}
	.st5{fill:#FFFFFF;}
</style>
<g id="surface1">
	<path class="st0" d="M23,6.1V3c0-1.7-1.3-3-3-3v6.1H23z"/>
	<path class="st1" d="M39,20.1l-11-13c0,0-1-1-3-1H3.1C1.4,6.1,0,7.5,0,9.2V30c0,1.7,1.4,3.1,3.1,3.1H37c1.7,0,3-1.3,3-3v-7
		C40,21.1,39,20.1,39,20.1z"/>
	<path class="st2" d="M36,33.1c0,2.8-2.2,5-5,5s-5-2.2-5-5s2.2-5,5-5S36,30.3,36,33.1z"/>
	<path class="st2" d="M15,33.1c0,2.8-2.2,5-5,5s-5-2.2-5-5s2.2-5,5-5S15,30.3,15,33.1z"/>
	<path class="st3" d="M33,33.1c0,1.1-0.9,2-2,2s-2-0.9-2-2s0.9-2,2-2C32.1,31.1,33,32,33,33.1z"/>
	<path class="st3" d="M12,33.1c0,1.1-0.9,2-2,2s-2-0.9-2-2s0.9-2,2-2S12,32,12,33.1z"/>
	<path class="st4" d="M20,6.1V0c-1.7,0-3,1.3-3,3v3.1H20z"/>
	<path class="st4" d="M18,14.1c0,3.3-2.7,6-6,6s-6-2.7-6-6s2.7-6,6-6S18,10.8,18,14.1z"/>
	<path class="st4" d="M0,22.1v4h40v-3c0-0.4,0-0.7-0.1-1H0z"/>
	<path class="st5" d="M8,13.1h8v2H8V13.1z"/>
	<path class="st5" d="M11,10.1h2v8h-2V10.1z"/>
	<path class="st2" d="M36.4,20.1L27.1,9H25v11.1H36.4z"/>
</g>
</svg>
