<?xml version="1.0" encoding="utf-8"?>
<!-- Generator: Adobe Illustrator 24.0.0, SVG Export Plug-In . SVG Version: 6.00 Build 0)  -->
<svg version="1.1" id="Layer_1" xmlns="http://www.w3.org/2000/svg" xmlns:xlink="http://www.w3.org/1999/xlink" x="0px" y="0px"
	 viewBox="0 0 38 36" style="enable-background:new 0 0 38 36;" xml:space="preserve">
<style type="text/css">
	.st0{fill:#FFCC80;}
	.st1{fill:#F2A25A;}
	.st2{fill:#24AC7C;}
	.st3{fill:#FFFFFF;}
</style>
<g id="surface1">
	<path class="st0" d="M18,12h15v24H18c-3.3,0-5.9-2.7-5.9-6V18C12.1,14.7,14.7,12,18,12z"/>
	<path class="st0" d="M29,15c0,1.7,1.3,3,3,3h3c1.7,0,3-1.3,3-3s-1.3-3-3-3h-3C30.3,12,29,13.3,29,15z"/>
	<path class="st0" d="M26,21c0,1.7,1.3,3,3,3h6c1.7,0,3-1.3,3-3s-1.3-3-3-3h-6C27.3,18,26,19.3,26,21z"/>
	<path class="st0" d="M25,27c0,1.7,1.3,3,3,3h6c1.7,0,3-1.3,3-3s-1.3-3-3-3h-6C26.3,24,25,25.3,25,27z"/>
	<path class="st0" d="M24,33c0,1.7,1.3,3,3,3h6c1.7,0,3-1.3,3-3s-1.3-3-3-3h-6C25.3,30,24,31.3,24,33z"/>
	<path class="st0" d="M19.5,7.6c0.9-1,1.6-2.3,1.9-3.6l0.7-3c0.1-0.6,0.7-1,1.2-1H24c1.8,0,3,2,3,3.3v1.4c0,2.8-0.5,5.6-1.8,8.1
		l-2.6,4.8l-8.2-4.3L19.5,7.6z"/>
	<path class="st1" d="M36,18h-4c-0.6,0-1,0.4-1,1s0.4,1,1,1L36,18z"/>
	<path class="st1" d="M35,24h-4c-0.6,0-1,0.4-1,1s0.4,1,1,1L35,24z"/>
	<path class="st1" d="M34,30h-4c-0.6,0-1,0.4-1,1s0.4,1,1,1L34,30z"/>
	<path class="st2" d="M13,35H3L0,13h13V35z"/>
	<path class="st3" d="M10,30c0,1.1-0.9,2-2,2s-2-0.9-2-2s0.9-2,2-2S10,28.9,10,30z"/>
</g>
</svg>
