<?xml version="1.0" encoding="utf-8"?>
<!-- Generator: Adobe Illustrator 24.0.0, SVG Export Plug-In . SVG Version: 6.00 Build 0)  -->
<svg version="1.1" id="Layer_1" xmlns="http://www.w3.org/2000/svg" xmlns:xlink="http://www.w3.org/1999/xlink" x="0px" y="0px"
	 viewBox="0 0 42 38" style="enable-background:new 0 0 42 38;" xml:space="preserve">
<style type="text/css">
	.st0{fill:#FFA726;}
	.st1{fill:#FF9800;}
	.st2{fill:#24AC7C;}
	.st3{fill:#FFB74D;}
	.st4{fill:#146848;}
	.st5{fill:#3D3D3D;}
	.st6{fill:#26221F;}
	.st7{fill:#FFFFFF;}
</style>
<g id="surface1">
	<path class="st0" d="M20,18.5c0,0.8-0.7,1.5-1.5,1.5S17,19.3,17,18.5s0.7-1.5,1.5-1.5S20,17.7,20,18.5"/>
	<path class="st0" d="M7,19.5C7,20.3,6.3,21,5.5,21S4,20.3,4,19.5S4.7,18,5.5,18S7,18.7,7,19.5"/>
	<path class="st1" d="M16,28c0,0,0,4-4,4s-4-4-4-4"/>
	<path class="st2" d="M15.8,28L12,28.8L8.3,28c0,0-8.3,1.5-8.3,10h24C24,29.6,15.8,28,15.8,28"/>
	<path class="st1" d="M12,32c-4,0-4-4-4-4v-4h8v4C16,28,16,32,12,32z"/>
	<path class="st3" d="M19,15.7c0-5.9-14-3.8-14,0v4.4c0,3.8,3.1,6.9,7,6.9s7-3.1,7-6.9V15.7z"/>
	<path class="st4" d="M12,34c3.1,0,5.6-2.3,5.9-5.3c-0.9-0.4-1.6-0.6-2-0.7c0,2.2-1.8,3.9-4,3.9s-4-1.8-4-3.9
		c-0.4,0.1-1.1,0.3-2,0.7C6.4,31.7,8.9,34,12,34z"/>
	<path class="st5" d="M12,8c-4.9,0-8,4.3-8,8.2V18l2,2v-4l9.2-3l2.8,3v4l2-2v-0.8c0-3.2-0.8-6.8-4.8-7.6L14.4,8H12z"/>
	<path class="st6" d="M14,19c0-0.6,0.4-1,1-1s1,0.4,1,1s-0.4,1-1,1S14,19.6,14,19 M8,19c0,0.6,0.4,1,1,1s1-0.4,1-1s-0.4-1-1-1
		S8,18.4,8,19"/>
	<path class="st2" d="M32.5,0C27.3,0,23,3.6,23,8c0,2.3,1.1,4.3,2.9,5.7c0,0,0,0,0,0.1C25.3,15.3,24.6,17,24,18c2,0,4.6-1,6.5-2.1
		l0.1-0.1c0.6,0.1,1.2,0.2,1.9,0.2c5.2,0,9.5-3.6,9.5-8S37.7,0,32.5,0z"/>
	<path class="st7" d="M27,5h11v2H27V5z"/>
	<path class="st7" d="M27,9h7v2h-7V9z"/>
	<path class="st7" d="M36,9h2v2h-2V9z"/>
</g>
</svg>
