<?xml version="1.0" encoding="utf-8"?>
<!-- Generator: Adobe Illustrator 24.0.0, SVG Export Plug-In . SVG Version: 6.00 Build 0)  -->
<svg version="1.1" id="Layer_1" xmlns="http://www.w3.org/2000/svg" xmlns:xlink="http://www.w3.org/1999/xlink" x="0px" y="0px"
	 viewBox="0 0 39.5 39.5" style="enable-background:new 0 0 39.5 39.5;" xml:space="preserve">
<style type="text/css">
	.st0{fill:#FFFFFF;}
</style>
<g id="surface1">
	<path class="st0" d="M15.4,0c-0.3,0-0.7,0.1-1,0.3l-1.9,1.4C11,1.8,8.9,2.1,6.6,3.2c-2.5,1.3-5,3.8-5,7.7c0,1,0.2,2,0.5,2.9
		c0.1,0.5,0.1,0.6,0.2,0.8c-0.7,0.9-2.3,3.3-2.3,7c0,0.4,0.2,0.9,0.5,1.2l3.3,3.1c0.4,0.4,1,0.5,1.6,0.4c1.3-0.4,2.2-1.2,3.1-1.9
		C8.7,25.6,9,26.4,9,28.8c0-0.2,0,0.1-0.1,0.3c-0.1,0.3-0.2,0.6-0.3,1c-0.2,0.8-0.5,1.6-0.5,2.5c0,1.9,1,4.5,4,6.5
		c0.3,0.2,0.6,0.3,0.9,0.3h13.2c0.3,0,0.6-0.1,0.9-0.3c3-2,4-4.6,4-6.5c0-1-0.3-1.8-0.5-2.5c-0.1-0.4-0.2-0.7-0.3-1
		c-0.1-0.3-0.1-0.5-0.1-0.3c0-2.4,0.3-3.2,0.6-4.5c0.9,0.7,1.7,1.5,3.1,1.9c0.6,0.2,1.2,0,1.6-0.4l3.3-3.1c0.3-0.3,0.5-0.7,0.5-1.2
		c0-3.7-1.6-6.1-2.3-7c0.1-0.3,0.1-0.4,0.2-0.8c0.2-0.9,0.5-1.9,0.5-2.9c0-3.9-2.5-6.4-5-7.7c-2.2-1.1-4.4-1.4-5.9-1.5l-1.9-1.4
		c-0.3-0.2-0.6-0.3-1-0.3H15.4z M15.9,3.3h7.6l1.8,1.3c0.3,0.2,0.6,0.3,1,0.3c0.9,0,3.2,0.3,5.1,1.2c1.8,0.9,3.2,2.2,3.2,4.7
		c0,0.3-0.2,1.3-0.4,2.1c-0.2,0.8-0.4,1.4-0.4,1.4c-0.2,0.5-0.1,1.1,0.3,1.6c0,0,1.7,2.3,1.9,5.1l-1.7,1.6c-1.7-0.9-3-2.6-3-2.6
		c-0.3-0.5-0.9-0.9-1.6-0.8c-0.6,0.1-1.2,0.5-1.4,1.1c-0.5,1.5-1.2,4.2-1.2,8.5c0,0.5,0.1,0.8,0.2,1.1c0.1,0.3,0.2,0.7,0.3,1.1
		c0.2,0.7,0.4,1.5,0.4,1.7c0,0.7-0.4,2.1-2.3,3.5H13.8c-1.8-1.4-2.3-2.8-2.3-3.5c0-0.1,0.2-0.9,0.4-1.7c0.1-0.4,0.2-0.7,0.3-1.1
		c0.1-0.3,0.2-0.6,0.2-1.1c0-4.3-0.6-7-1.2-8.5c-0.2-0.6-0.8-1-1.4-1.1c-0.6-0.1-1.2,0.2-1.6,0.8c0,0-1.3,1.7-3,2.6L3.4,21
		c0.3-2.8,1.9-5.1,1.9-5.1c0.4-0.4,0.5-1,0.3-1.6c0,0-0.2-0.6-0.4-1.4c-0.2-0.8-0.4-1.8-0.4-2.1c0-2.6,1.3-3.8,3.2-4.7
		c1.8-0.9,4.2-1.2,5.1-1.2c0.4,0,0.7-0.1,1-0.3L15.9,3.3z M14.8,19.7c-0.6,0-1.1,0.3-1.4,0.8c-0.3,0.5-0.3,1.1,0,1.7
		c0.3,0.5,0.9,0.8,1.4,0.8h2.5c0.6,0,1.1-0.3,1.4-0.8c0.3-0.5,0.3-1.1,0-1.7c-0.3-0.5-0.9-0.8-1.4-0.8H14.8z M22.2,19.7
		c-0.6,0-1.1,0.3-1.4,0.8c-0.3,0.5-0.3,1.1,0,1.7c0.3,0.5,0.8,0.8,1.4,0.8h2.5c0.6,0,1.1-0.3,1.4-0.8c0.3-0.5,0.3-1.1,0-1.7
		c-0.3-0.5-0.9-0.8-1.4-0.8H22.2z M15.6,24.7c-0.6,0-1.1,0.3-1.4,0.8c-0.3,0.5-0.3,1.1,0,1.7c0.3,0.5,0.9,0.8,1.4,0.8h1.6
		c0.6,0,1.1-0.3,1.4-0.8c0.3-0.5,0.3-1.1,0-1.7c-0.3-0.5-0.9-0.8-1.4-0.8H15.6z M22.2,24.7c-0.6,0-1.1,0.3-1.4,0.8
		c-0.3,0.5-0.3,1.1,0,1.7c0.3,0.5,0.8,0.8,1.4,0.8h1.6c0.6,0,1.1-0.3,1.4-0.8c0.3-0.5,0.3-1.1,0-1.7c-0.3-0.5-0.9-0.8-1.4-0.8H22.2z
		 M16.7,29.6c-0.6,0-1.1,0.3-1.4,0.8c-0.3,0.5-0.3,1.1,0,1.7c0.3,0.5,0.9,0.8,1.4,0.8h0.5c0.6,0,1.1-0.3,1.4-0.8
		c0.3-0.5,0.3-1.1,0-1.7c-0.3-0.5-0.9-0.8-1.4-0.8H16.7z M22.2,29.6c-0.6,0-1.1,0.3-1.4,0.8c-0.3,0.5-0.3,1.1,0,1.7
		c0.3,0.5,0.8,0.8,1.4,0.8h0.5c0.6,0,1.1-0.3,1.4-0.8c0.3-0.5,0.3-1.1,0-1.7c-0.3-0.5-0.9-0.8-1.4-0.8H22.2z"/>
</g>
</svg>
