<?xml version="1.0" encoding="utf-8"?>
<!-- Generator: Adobe Illustrator 24.0.0, SVG Export Plug-In . SVG Version: 6.00 Build 0)  -->
<svg version="1.1" id="Layer_1" xmlns="http://www.w3.org/2000/svg" xmlns:xlink="http://www.w3.org/1999/xlink" x="0px" y="0px"
	 viewBox="0 0 47.7 48" style="enable-background:new 0 0 47.7 48;" xml:space="preserve">
<style type="text/css">
	.st0{fill:#FFFFFF;}
</style>
<g id="surface1">
	<path class="st0" d="M33.8,0c-3.6,0-7.2,1.4-9.8,4.2l-20,20C0.1,28.1-0.9,34,0.9,38.9L0.8,39c0,0.1,0.1,0.2,0.2,0.4
		c0.2,0.4,0.3,0.9,0.6,1.3c0.2,0.3,0.4,0.6,0.6,0.9C2.7,42.4,3.2,43.3,4,44c2.6,2.6,6.2,4,9.8,4c2.3,0,4.6-0.6,6.6-1.8
		c0.3-0.2,0.6-0.3,0.9-0.5c0.1-0.1,0.2-0.1,0.3-0.2c0.8-0.5,1.5-1.1,2.2-1.8l12-12l-0.1-0.1l7.9-7.9C49,18.4,49,9.4,43.6,4
		C41,1.4,37.4,0,33.8,0z M33.8,4c2.6,0,5.2,1,7,3c3.8,3.8,3.8,10.2,0,14.2L33,29L21.8,17.8L4.1,35.7c-0.5-3.1,0.4-6.4,2.7-8.9l20-20
		C28.6,5,31.2,4,33.8,4z"/>
</g>
</svg>
