<svg id="_Layer_" data-name="&lt;Layer&gt;" xmlns="http://www.w3.org/2000/svg" viewBox="0 0 899.87 760.68"><defs><style>.cls-1{fill:#233862;}.cls-2{fill:#2b478b;}.cls-3{fill:#ffb27d;}.cls-4{fill:#ed985f;}.cls-5{fill:#020202;}.cls-6{fill:#101111;}.cls-7{fill:#24ac7c;}.cls-8{fill:#fff;}.cls-9{fill:#ebf3fa;}.cls-10{fill:#6980e2;}.cls-11{fill:#98baf4;}.cls-12{fill:#91cecf;}.cls-13{fill:#abddda;}.cls-14{fill:#6bb7bf;}.cls-15{fill:#aec3ff;}.cls-16{fill:#8c9df4;}.cls-17{fill:#23417c;}.cls-18{fill:#c65447;}.cls-19{fill:#e8945b;}.cls-20{fill:#e2915a;}.cls-21{fill:#1e825c;}</style></defs><title>home-slide</title><path class="cls-1" d="M42.28,759.22s0-11.9,1.7-15.86,7.92-20.08,7.92-20.08H76.22S80.75,738,81,742.79s0,16.43,0,16.43Z"/><path class="cls-1" d="M196.72,759.22s0-11.9-1.7-15.86-7.92-20.08-7.92-20.08H162.78S158.25,738,158,742.79s0,16.43,0,16.43Z"/><path class="cls-2" d="M45.33,346.84s4.26,130-2.11,204.1.05,177.33.05,177.33,20.35,11.23,42.41,0c0,0,24.2-143.24,24-177.33-.16-36.3,26.33-198.43,26.33-198.43Z"/><path class="cls-2" d="M195.84,728.27s-20.35,11.23-42.41,0c0,0-24.19-143.24-24-177.33.07-15.33-4.61-53.12-10-91.64-7.44-52.7-16.28-106.79-16.28-106.79l94.24-5.89s-7.77,130.18-1.41,204.32S195.84,728.27,195.84,728.27Z"/><path class="cls-1" d="M129.39,550.94c.07-15.33-4.61-53.12-10-91.64,5.64-23,19.39-45.16,19.39-45.16C156.12,462.93,129.39,550.94,129.39,550.94Z"/><path class="cls-3" d="M63.64,135.54S28.58,139.7,20.88,171.2s-38,111.53-7.69,129.62c0,0,32.06-43,44.25-77.6S63.64,135.54,63.64,135.54Z"/><path class="cls-3" d="M182.82,152.35s35.28-4.44,43,27.06,32.3,101.83,2,119.92c0,0-34.23-41.48-46.42-76.11S182.82,152.35,182.82,152.35Z"/><path class="cls-3" d="M99.27,90.87s-.85,26.52-4.25,38.4L68.16,148l101.11,15.14-24.11-33.32s-7.28-35.55-3.46-48.7S99.27,90.87,99.27,90.87Z"/><path class="cls-4" d="M99.13,94.53s8,19.25,23.05,18.83S140.67,95.9,140.67,95.9Z"/><path class="cls-5" d="M90.14,79s-4.87-24.28-8.26-31.63S75.66,7.16,113.27,5.46c0,0,14.43,1.7,22.35-3.11,0,0,0,4.81-2,6.5a25,25,0,0,1,23.19,8.21C167,28.37,150,68,150.89,77.3Z"/><path class="cls-3" d="M120.46,105.92c-10.92-.19-31-14.72-31-32.72V45.12c0-6.57,4.58-11.94,10.18-11.94h41.63c5.6,0,10.18,5.37,10.18,11.94V71.61C151.45,90.48,133,106.14,120.46,105.92Z"/><path class="cls-6" d="M89.46,60.12s.06-16.88,13.42-19.47,43.27,8.22,47.51-4.08S92.58,24.48,89.46,32.33,89.46,60.12,89.46,60.12Z"/><path class="cls-7" d="M203,211.7l-4.33,193c-78.07,13.47-161.78,2.57-161.78,2.57L44.69,249.5c-.2-2.28-.36-4.63-.42-7-.09-3.15,0-6.88.16-11C46,198.32,56,138.74,63.64,135.53c0,0,11.33-4.2,31.38-6.27,0,.4,11.64,17.41,25.44,19.31,8.58-3.39,15.32-6.29,24.7-18.76,5.51.64,11.29,1.44,17.44,2.61.44.07.91.16,1.37.25a189.81,189.81,0,0,1,21.57,5.54s9.92,3.85,7.73,73Z"/><path class="cls-8" d="M111.76,87.83a12,12,0,0,0,9.34,4.44,11.11,11.11,0,0,0,8.72-4.44S119.81,86.19,111.76,87.83Z"/><path class="cls-3" d="M13.19,300.82c35.42,9.54,55.36-15.11,138.26-49.2l-2.51-13.22s-95.32,1.11-112,10.15C15.2,260.31,10.27,300,13.19,300.82Z"/><path class="cls-7" d="M80,131.4v0l-8.35,24.71-.38,1.13-.12.34-.6,1.8L60.24,190l-1,3.05L47.82,226.82c-1.07.11-2.12.2-3.14.27C15,229.17.36,220.33.36,220.33s6.09-39.44,20.84-61.89c9.65-14.68,31.85-21.73,46.05-24.84l1.34-.29C75.39,131.89,80,131.4,80,131.4Z"/><path class="cls-7" d="M175.22,135.54s26.2,3.84,43.52,24.44,21.81,56.5,21.81,56.5-24.05,10.27-52.27,7.7S175.22,135.54,175.22,135.54Z"/><rect class="cls-9" x="144.31" y="190.22" width="36.16" height="13.76"/><path class="cls-2" d="M61.51,219.8l1.7-.78c-.1-.23-10.36-23.06-3.46-47.74a18.87,18.87,0,0,1,15.4-13.59c6.78-.9,12.93,2.39,16.87,9,9.35,15.75-7.67,53.88-7.85,54.26l1.71.78a159.5,159.5,0,0,0,7.59-21.58c4.27-15.83,4.32-27.41.16-34.42-4.34-7.31-11.17-10.93-18.73-9.93a20.75,20.75,0,0,0-17,14.94C50.85,196.14,61.4,219.57,61.51,219.8Z"/><path class="cls-2" d="M87.63,222.1A2.7,2.7,0,1,0,84.3,224,2.7,2.7,0,0,0,87.63,222.1Z"/><path class="cls-2" d="M65.16,220.19a2.69,2.69,0,1,0-3.32,1.87A2.69,2.69,0,0,0,65.16,220.19Z"/><path class="cls-2" d="M78.54,157.44l-.14,0a.63.63,0,0,1-.48-.76c0-.18,4.17-18.09,13.35-28.47a.65.65,0,0,1,.91-.05.63.63,0,0,1,0,.9c-9,10.13-13,27.72-13.06,27.9A.64.64,0,0,1,78.54,157.44Z"/><path class="cls-3" d="M82.33,229.35s-35.8-2-36.18,16.23l33.1-1.5Z"/><path class="cls-4" d="M177.08,238.67s26.79-6.79,31.28,11.15-38.52,0-38.52,0Z"/><path class="cls-2" d="M164.88,159.73a.66.66,0,0,1-.6-.42,106.57,106.57,0,0,0-17.05-29.63.63.63,0,0,1,.06-.9.64.64,0,0,1,.91.06,108.11,108.11,0,0,1,17.29,30,.65.65,0,0,1-.39.83A.78.78,0,0,1,164.88,159.73Z"/><path class="cls-2" d="M171.15,160.47a6.27,6.27,0,1,0-6.27,6.26A6.27,6.27,0,0,0,171.15,160.47Z"/><path class="cls-10" d="M167.74,160.47a2.86,2.86,0,1,0-2.86,2.85A2.85,2.85,0,0,0,167.74,160.47Z"/><path class="cls-4" d="M109.92,270.05s-10.19-12.26-34.84-27.79l41.84,7.9,12.78,10.47-5.82,3Z"/><polygon class="cls-4" points="152.24 240.02 187.92 237.41 185.43 247.6 152.24 240.02"/><path class="cls-3" d="M227.83,299.33s-73.55-8-159.67-62.32l14.17-7.66s113,12.27,127.11,22.9C231.65,268.94,244.48,295.44,227.83,299.33Z"/><path class="cls-4" d="M46.15,245.58s24.48-4.18,24.05-4.5-8.89-2.89-10.84-1.93S46.15,245.58,46.15,245.58Z"/><rect class="cls-11" x="723.31" y="393.81" width="39.26" height="61.96"/><path class="cls-8" d="M764.19,457.77H720.94V391.82h43.25Zm-39.26-4h35.26v-58H724.93Z"/><rect class="cls-8" x="724.43" y="414.54" width="36.26" height="2.99"/><rect class="cls-8" x="724.43" y="435.16" width="36.26" height="2.99"/><rect class="cls-8" x="711.44" y="423.15" width="62.26" height="3" transform="translate(1167.21 -317.91) rotate(90)"/><path class="cls-3" d="M679.67,231.25c-1.24,2.34-9.47,90-3,101.51s37-22,37.75-78.54C715.06,206.57,679.67,231.25,679.67,231.25Z"/><rect class="cls-1" x="629.73" y="299.21" width="126.29" height="89.05" transform="translate(1252.9 877.22) rotate(-162.78)"/><path class="cls-2" d="M676.81,736.52l12.43,4.63s54-74.85,60.61-140.71c1.19-11.76.79-23.15-1.78-33.67l1.46-8.34c.42-2.49,1-5.48,1.55-8.91,1.75-10,4.17-23.81,6.93-39.47,6.35-36.05,14.57-82.12,21-116L775.63,393,739.4,381.29l-7.49-23.78-27-7.1s-6,11.79-11.41,67.47c-1,7.31-1.9,15.36-2.58,24.1a476.73,476.73,0,0,0,2.57,97.54c1.24,9.68,2.8,19.67,4.74,29.93,1.42,7.53,1.63,17.79,1,29.57C696.57,652.85,676.81,736.52,676.81,736.52Z"/><path class="cls-1" d="M691,442l58.58,116.45c.42-2.49,1-5.48,1.55-8.91,1.75-10,4.17-23.81,6.93-39.47,6.35-36.05,14.57-82.12,21-116L775.63,393,739.4,381.29l-7.49-23.78-27-7.1s-6,11.79-11.41,67.47C692.53,425.19,691.63,433.24,691,442Z"/><path class="cls-2" d="M716.72,365.36l1.36-11.63c22.71,6,83.41-16.86,83.41-16.86s22,19.34,19.12,65.71c-1.41,22.64-4,118.82-6.68,147.28-1,10.31-1.82,17.65-2.17,20.59v0a4.13,4.13,0,0,0,.66,2.52,134.17,134.17,0,0,1,9.93,20.89c26.41,70.37-4.06,157-4.06,157l-7.91-3.18S793,651.29,778.93,608.68c-2.39-7.23-4.68-12.91-6.78-16.3-6.13-9.89-11.82-26-17-45.27-9.75-36.33-17.6-83.6-22.83-120.08C731.62,427.06,716.72,365.36,716.72,365.36Z"/><path class="cls-1" d="M772.3,757.38h62.58s1.5-9.53-1.77-16.77c-3.13-6.94-8-10.1-6.86-18.5-4,4.09-10.46,8.68-19.51,7.46-1.11,1.8-7.15,11.42-10.86,14.08C791.79,746.59,773.56,745.54,772.3,757.38Z"/><path class="cls-1" d="M637.92,757.38h62.59s2.34-10-1.77-16.77c-3.64-6-2.25-9.43.45-14.41a24.37,24.37,0,0,1-10.54,2,22,22,0,0,1-9.31-3.28c-2.69,3.08-14.23,16.15-17.83,18.74C657.42,746.59,639.18,745.54,637.92,757.38Z"/><path class="cls-6" d="M785,44.08c.49-1.68,6.43-19.63,34.53-13.54,0,0-14.11-1.83-18,3.59,0,0,11.21-5.08,18.2-.77s8.08,18.76,7,23.14-8.85,17.44-14,17.42a15.21,15.21,0,0,1-5.84-1.47,66.91,66.91,0,0,1,2.05,7.62c5.34,25.63-11.76,45-20.55,40.19-5.64-3.11-9.95,6.76-9.95,6.76L731.82,64.71S764.63,25.59,785,44.08Z"/><path class="cls-3" d="M745.52,209.64c38.61,12.05,44.77-48.48,42.31-48.79-4.16-3.72-9.69-18-9.51-39.63l-1.89.36-31.61,6.13s.67,10,.67,19.31c0,7.32-.46,14.28-2,15.88-2.45.34-3.93.57-3.93.57l0,0C739.1,164.15,735.22,206.43,745.52,209.64Z"/><path class="cls-4" d="M744.82,127.71s.68,10,.66,19.31c17.68-.43,27.09-16.52,30.95-25.44Z"/><path class="cls-3" d="M738.88,136.56s41.82.85,42-25.2,5.62-43.48-21.08-45.13-31.93,8.27-34.09,17S728,135.66,738.88,136.56Z"/><path class="cls-6" d="M727,68.7c6.5-7.81,11.38-6.07,14.1-3.7,22.91-12.48,37.57,6.16,37.57,6.16a49.74,49.74,0,0,0,16.16,29.46s-7.64,4.68-25.2.09c-5.36-1.4-10.14-5.23-14.19-9.88a97.48,97.48,0,0,0,16.71,20.58c-21-9.79-29.27-39-30.1-42.1-2.56,2.28-7.61,7.24-9.16,12.12-2.11,6.62-3.1,20.27-7.08,19.79C725.77,101.22,717.22,80.42,727,68.7Z"/><path class="cls-12" d="M783.48,153.71s6.57,2.14,6.92,6.78c0,0-17.61,32.9-37.08,34.77Z"/><path class="cls-7" d="M691.68,310.21l-15.11,86.17c8.91,5.46,17.53,10.14,25.81,14.16a104.09,104.09,0,0,1,6.79-14.82c-1.2,4.43,1.84,14.24,3.76,19.63,77.06,33.21,123.59,7.7,123.59,7.7-11.57-85.12-3-225.27-5.07-235.28-4-19-41.05-27.28-41.05-27.28-13.56,23.77-37.09,34.77-37.09,34.77-8.85-8.73-11.15-32.15-11.15-32.15l-15.46,3.81A58.36,58.36,0,0,0,700,181.43c-.66.65-1.33,1.31-2,2-7.64,8.18-27.53,60.92-27.53,60.92s4.18,14.49,11.85,21.78a90.26,90.26,0,0,0,15.09,11Z"/><path class="cls-12" d="M753.32,195.26s-9.65-31.94-8.53-36.09c0,0-7.56.94-8.22,5.32C736.57,164.49,745.12,191.14,753.32,195.26Z"/><path class="cls-8" d="M748.39,121.62s-1.86,4.07-4.48,4.52-6.72.44-7.64,0-2.39-3.3-3-4.19a129.61,129.61,0,0,1,14.52-.33Z"/><path class="cls-12" d="M682.39,266.12a107.24,107.24,0,0,0,15.09,11s11.58-43.31,8.13-46.33S695.82,256.22,682.39,266.12Z"/><path class="cls-3" d="M850.76,216.75s54,73.49,48.75,98.46c-4.17,19.88-58.79,65.58-58.79,65.58l-14.1-9.1s34.1-49.43,31.11-63.91c-2.32-11.27-36.15-54-36.15-54Z"/><path class="cls-13" d="M814.72,169.63s29.94,16.08,55.71,67.12c0,0-15.21,20.23-45.48,30.05s-29.25-48.67-29.25-48.67Z"/><polygon class="cls-12" points="751.8 227.09 714.67 227.18 714.43 257.66 730.72 266.84 750.96 259.02 751.8 227.09"/><path class="cls-3" d="M830.26,372.61s-15.23-5.8-23.75-3.53c-4.81,1.28-13.73,18.28-8.18,20.85s11.85-6.53,18.69-4.81,15.31,11.65,23.7-4.33Z"/><path class="cls-3" d="M829.44,370.68a73.65,73.65,0,0,1-8.5-4.48c-2.64-1.85-4.25,1.44,0,4.48s5.77,1.69,5.77,1.69Z"/><path class="cls-3" d="M623.63,368.82s17.27-8.2,20.79,1-2.56,16.92-8.34,15.1S620,377,623.63,368.82Z"/><path class="cls-2" d="M797.28,258.24l-1.35-1.3c.17-.19,17.38-18.36,19-43.94a18.87,18.87,0,0,0-10-17.9c-6.11-3.08-13-2-18.91,3-14,11.79-10.52,53.4-10.48,53.82l-1.87.17a161.33,161.33,0,0,1,0-22.87c1.19-16.36,5-27.31,11.2-32.55,6.51-5.47,14.15-6.64,21-3.2a20.74,20.74,0,0,1,11.08,19.69C815.14,239.41,797.46,258.05,797.28,258.24Z"/><path class="cls-2" d="M771.86,251.79a2.7,2.7,0,1,1,2.53,2.86A2.71,2.71,0,0,1,771.86,251.79Z"/><path class="cls-2" d="M793.7,257.4a2.7,2.7,0,1,1,2.52,2.86A2.7,2.7,0,0,1,793.7,257.4Z"/><path class="cls-2" d="M802,193.78h-.08a.65.65,0,0,1-.56-.71c0-.18,2-18.13-3.14-30.65a.63.63,0,0,1,.35-.83.64.64,0,0,1,.84.35c5.25,12.82,3.24,31.09,3.22,31.27A.63.63,0,0,1,802,193.78Z"/><path class="cls-2" d="M723.29,198.6h0a.63.63,0,0,1-.61-.67,107.28,107.28,0,0,1,7.24-33.88.66.66,0,0,1,.84-.34.64.64,0,0,1,.34.84A106.58,106.58,0,0,0,723.93,198,.64.64,0,0,1,723.29,198.6Z"/><path class="cls-2" d="M717.75,201.2a6.27,6.27,0,1,1,7.89,4A6.26,6.26,0,0,1,717.75,201.2Z"/><path class="cls-10" d="M721,200.15a2.85,2.85,0,1,1,3.59,1.84A2.85,2.85,0,0,1,721,200.15Z"/><rect class="cls-11" x="628.61" y="393.81" width="39.26" height="61.96"/><path class="cls-8" d="M669.48,457.77H626.24V391.82h43.24Zm-39.25-4h35.26v-58H630.23Z"/><rect class="cls-8" x="629.73" y="414.54" width="36.26" height="2.99"/><rect class="cls-8" x="629.73" y="435.16" width="36.26" height="2.99"/><rect class="cls-8" x="616.73" y="423.15" width="62.26" height="2.99" transform="translate(1072.51 -223.21) rotate(90)"/><rect class="cls-8" x="616.73" y="635.62" width="62.25" height="2.99" transform="translate(1284.98 -10.74) rotate(90)"/><path class="cls-6" d="M583.58,76.08s-11.36-24.14-9.08-36.87,1.77-29.63,18.74-36.16,18.48-.24,36.93-2.2c17.88-1.9,24.27,20.74,26,30.36,3.57,20.32-2.55,33.06-7.93,39.91-4.66,5.93-6.78,8.9-6.78,8.9Z"/><path class="cls-1" d="M536.4,758.26s0-11.91,1.7-15.86S546,722.32,546,722.32h24.32s4.53,14.7,4.81,19.51,0,16.43,0,16.43Z"/><path class="cls-1" d="M690.84,758.26s0-11.91-1.7-15.86-7.92-20.08-7.92-20.08H656.9s-4.53,14.7-4.81,19.51,0,16.43,0,16.43Z"/><path class="cls-14" d="M539.45,345.88s4.26,130-2.11,204.1,0,177.33,0,177.33,20.35,11.22,42.41,0c0,0,24.19-143.24,24-177.33-.16-36.31,26.33-198.43,26.33-198.43Z"/><path class="cls-14" d="M690,727.31s-20.35,11.22-42.41,0c0,0-24.19-143.24-24-177.33.07-15.34-4.61-53.12-10-91.64-7.44-52.7-16.28-106.79-16.28-106.79l94.24-5.89S683.64,475.84,690,550,690,727.31,690,727.31Z"/><path class="cls-15" d="M557.76,134.58S522.7,138.74,515,170.24s-38,111.53-7.7,129.62c0,0,32.07-43,44.26-77.6S557.76,134.58,557.76,134.58Z"/><path class="cls-15" d="M676.94,151.39s35.28-4.44,43,27.06,32.31,101.83,2,119.92c0,0-34.22-41.48-46.41-76.11S676.94,151.39,676.94,151.39Z"/><path class="cls-3" d="M593.39,89.91s-.86,26.52-4.25,38.4L562.28,147l101.11,15.13-24.11-33.31S632,93.31,635.81,80.15,593.39,89.91,593.39,89.91Z"/><path class="cls-4" d="M593.24,93.57s8,19.25,23.06,18.83,18.49-17.46,18.49-17.46Z"/><path class="cls-3" d="M614.57,105c-10.91-.19-31-14.72-31-32.72V44.16c0-6.57,4.58-11.95,10.18-11.95h41.63c5.6,0,10.18,5.38,10.18,11.95V70.65C645.57,89.52,627.09,105.18,614.57,105Z"/><path class="cls-7" d="M692.82,403.76C614.74,417.23,531,406.33,531,406.33l7.78-157.79c-.21-2.28-.36-4.63-.43-7-.08-3.15,0-6.89.17-11,1.57-33.11,11.57-92.69,19.2-95.9,0,0,11.34-4.21,31.39-6.27,0,.4,11.64,17.41,25.44,19.3,8.58-3.38,15.31-6.28,24.7-18.75,5.5.64,11.29,1.44,17.43,2.6l1.38.26a189.81,189.81,0,0,1,21.57,5.54s9.92,3.85,7.72,73Z"/><path class="cls-8" d="M605.88,86.87a12,12,0,0,0,9.34,4.44,11.11,11.11,0,0,0,8.72-4.44S613.93,85.23,605.88,86.87Z"/><path class="cls-15" d="M531,282.79l-4.36,234.94s35.2,9.1,65.46,11L600,241.55l-10.78-97.22-9.79-16s-32.37,2.53-51.75,18.32c-13.22,10.77-19.33,47.5-19.33,47.5l30.47,32Z"/><path class="cls-15" d="M697.64,282.79,702,517.73s-35.2,9.1-65.46,11l-6.37-278.65,9.31-105.78,9.79-16S681.55,131,701,146.62c20.89,16.81,25.08,58.19,25.08,58.19l-36.22,21.32Z"/><path class="cls-3" d="M507.3,299.86c35.43,9.54,55.37-15.11,138.27-49.2l-2.51-13.22s-95.32,1.1-112,10.15C509.32,259.35,504.39,299.08,507.3,299.86Z"/><path class="cls-3" d="M576.45,228.39s-35.8-2-36.18,16.23l33.09-1.5Z"/><path class="cls-4" d="M671.2,237.71s26.79-6.79,31.28,11.15-38.52,0-38.52,0Z"/><path class="cls-4" d="M604,269.09s-10.2-12.26-34.84-27.79L611,249.2l12.78,10.47-5.82,3Z"/><polygon class="cls-4" points="646.36 239.06 682.04 236.45 679.55 246.64 646.36 239.06"/><path class="cls-4" d="M540.27,244.62s24.48-4.18,24.05-4.5-8.9-2.89-10.84-1.93S540.27,244.62,540.27,244.62Z"/><path class="cls-16" d="M591.58,114.57s-14.82,8.2-17.42,15.88c0,0-7.18,31.27,2.29,52.33l15.13-3.68-7.77,9.55s4,43.44,16.16,52.9C600,241.55,590.49,126.21,591.58,114.57Z"/><path class="cls-16" d="M636.81,114.57s14.82,8.2,17.41,15.88c0,0,9.47,29.07,0,50.12l-17.41-1.47,12.46,10.29s-6.94,51.27-19.1,60.72C630.17,250.11,637.9,126.21,636.81,114.57Z"/><path class="cls-3" d="M721.94,298.37s-73.54-8-159.66-62.32l14.17-7.66s112.95,12.27,127.1,22.9C725.76,268,738.6,294.48,721.94,298.37Z"/><rect class="cls-9" x="552.3" y="192.33" width="24.15" height="10.61"/><path class="cls-6" d="M600.62,32.21s11.1,10.08,25.3,8.09,13.87-7.93,15.86-5.42,2.2,22.91,5,24.24l1.47-26.91L620.05,16l-40.4,4.65,3.93,39.42s-.75-14.44,5.37-18.61A115.66,115.66,0,0,0,600.62,32.21Z"/><path class="cls-3" d="M354.14,399.26s7.3,25.66,5.57,32.07-9.42,18.39-12.84,18,0-41.05,0-41.05Z"/><path class="cls-5" d="M230.17,200.56c-2.66-5.13,58-23.6,59,27,0,0,113.69-2.79,59.41-66.16-18.8-21.93-16.86-40.07-16.3-56.95s-11.7-66-53.78-61c0,0-11-4.49-24.78,2.65C222.44,62.33,152.38,219.23,230.17,200.56Z"/><path class="cls-15" d="M359.69,407s-.64,3.08-7,4.63a43.68,43.68,0,0,1-13,.72c-1.26-.09-2.6-.2-4-.37-2.71-.29-5.71-.74-9-1.37l2.35-139.19-9.8-108.62s20.92,9.89,31.18,42c7.87,24.63,9.2,130.69,9.39,178.6C359.74,397.81,359.69,407,359.69,407Z"/><path class="cls-16" d="M359.69,407s-.64,3.08-7,4.63a43.68,43.68,0,0,1-13,.72l1.89-103.69s1.55,56.62,18.16,74.7C359.74,397.81,359.69,407,359.69,407Z"/><path class="cls-17" d="M153.26,701.32S140.52,713,143,721.21s14,13.77,15.53,23.86,7.77,15.61,13.36,15.61h26.66s4.12-7.11-5.82-9.25-13.69-14-13.07-25-.93-25.7-.93-25.7l-21.13-4.89Z"/><path class="cls-17" d="M261.08,706.26s-4.58,49.25,1,52l71.57-.14s0-8.26-11.49-10.1-31.69-8.57-35.11-23.56S261.08,706.26,261.08,706.26Z"/><path class="cls-1" d="M319.52,302.08s20.64,64.23,22,86.1S302,698.83,300.4,708.91c-1.55,9.5-13.34,15.55-13.34,15.55a17.88,17.88,0,0,1-13.17,1c-10.74-3-14.13-6.67-14.13-6.67s-16.07-206-6.13-279.53a1165.73,1165.73,0,0,0,10.06-137.2Z"/><path class="cls-2" d="M232.1,300.16S200.62,342.4,197.68,371s-4.6,128.83-10.85,156.66S157.61,609,157.61,695.82c0,0,2.39,5,9.76,7.62a81.21,81.21,0,0,0,8.58,2.38A13.49,13.49,0,0,0,191,698.65c15.53-31.26,65-132.11,67.53-153,1.8-14.81,12.34-103.73,46.41-161.26,8.18-13.82,7.68-74,7.68-74Z"/><path class="cls-2" d="M206,217.45a284.29,284.29,0,0,0,0,33.09c.71,12,12.81,28,14.53,31.94,4.3,9.94,9.16,11.56,9.16,11.56l37.58,9.21,3.15,20.12S302,336.84,323.85,316c19-18.14,17.3-74.92,9.68-104.74s-19.26-50.53-19.26-50.53S286,149.57,236,157.89Z"/><path class="cls-15" d="M249.52,154.81s-15.79,2.63-25.41,5.83L217,247.26H282.3l-24.53-64.35Z"/><path class="cls-15" d="M282.3,247.26l-7.16,266.9s-35.77,17-104.09,0L188.67,230Z"/><path class="cls-18" d="M172,309.29l48.31,42.06a8.38,8.38,0,0,0,11.82-.81l61.64-70.79a8.39,8.39,0,0,0-.81-11.83l-48.31-42.06a8.38,8.38,0,0,0-11.82.82l-61.65,70.78A8.4,8.4,0,0,0,172,309.29Z"/><path class="cls-3" d="M243.46,304c.69.18,25.66,3.12,25.66,8.28,0,6-7.32,14-14.22,13.58-2.79-.15-15.68-12-15.68-12Z"/><path class="cls-3" d="M256.28,155.16c2.85-6.89,4.5-17.39,4.46-30.38l1.88.38,31.73,6.28s-.72,10-.75,19.39v.23c0,8.17,5.52,16.36-7.58,19.6C282,171.66,250.32,169.63,256.28,155.16Z"/><path class="cls-19" d="M294.35,131.44s-.72,10-.75,19.39c-17.75-.5-27.13-16.7-31-25.67Z"/><path class="cls-3" d="M300.28,140.34s-42,.7-42-25.47-5.47-43.69,21.34-45.24,32,8.43,34.17,17.16S311.2,139.49,300.28,140.34Z"/><path class="cls-6" d="M298.72,69s-11.5,30.69-29.15,35.23-25.3-.19-25.3-.19a50,50,0,0,0,16.35-29.52S290.05,54.38,298.72,69Z"/><path class="cls-6" d="M295.87,71.48s8.53,3.19,12,9.41a42.38,42.38,0,0,1,5.68,24s8.66-20.86-1.08-32.67C302.19,59.73,295.87,71.48,295.87,71.48Z"/><path class="cls-3" d="M243.46,304s6-1.92,10-1.36,6.95-.08,6.95,1-5.16,1.64-6.26,2.18S243.46,304,243.46,304Z"/><path class="cls-15" d="M236,157.89s-29.81,2.09-41.24,29.88S161.64,262.2,161.64,270s12.11,32,77.16,45.95c0,0,6.73-7.08,6.32-12.68,0,0-40.61-34.87-40.5-38.95.21-7.71,6.66-17.89,42.31-53.55C256.63,201.11,236,157.89,236,157.89Z"/><path class="cls-16" d="M267.55,201.51s-11.19-30.63-9-53.68c0,0-8.73,2.2-13.25,8.7,0,0-2.05,35.26,4.36,51.61,0,0,9.56.43,11.64-.7,0,0-4.17,7.06-3.53,7.86s24.53,32,24.53,32Z"/><path class="cls-15" d="M316.94,233.58,324,508.08s16.68.64,26.3-9.62L341.52,201s-9.18-35.8-27.25-40.32l-18.07-4.53Z"/><path class="cls-16" d="M293.6,150.83a96.75,96.75,0,0,0,1.11,11.88c3,20.67,25,62.11,22.48,80.61,0,0,2.31-32.19,2.31-39l-6.41-4.49,8.34-3.42S305.87,157.54,293.6,150.83Z"/><rect class="cls-16" x="198.07" y="406.1" width="62.33" height="6.36" transform="translate(30.22 -15.52) rotate(4.15)"/><path class="cls-16" d="M197.92,410.2s-4.53,38.55,0,42.08,51.85,8,56.25,4.49,5.92-42.06,5.92-42.06Z"/><path class="cls-1" d="M376.87,757.5H417.3A96.55,96.55,0,0,0,414.07,743a41.88,41.88,0,0,0-2.28-5.83c-3.94-7.85-28.91-2.85-28.91-2.85s-2.32,2-4.13,9.57A81.1,81.1,0,0,0,376.87,757.5Z"/><path class="cls-7" d="M451.09,137.41s32.21,5.65,39.5,24.67S539,488.24,539,488.24s-20.38,16.14-64.11,10.35S451.09,137.41,451.09,137.41Z"/><path class="cls-1" d="M499,746c.11,5.5.8,10.71,2.8,12.76h80c-1-2.89-3.89-7.24-12.1-8.57-9.33-1.51-23.87-6-32.36-15a24.1,24.1,0,0,1-6.27-11.34C527.31,707.12,500,729,500,729A134.45,134.45,0,0,0,499,746Z"/><path class="cls-1" d="M533.48,734c-8.94,2.85-26,11.55-36.87,7.46-7-2.64-46.21-116-48.75-165.61a127,127,0,0,0-2-14.77c-2.33-12.8-6.39-30.39-11.06-49.79-12.55-52-29.51-117-29.14-137.84.57-32.27,96.17-6.77,96.17-6.77s6.57,26.48,7.88,64.8c2.6,76.08,9.74,204.58,29.15,293.82A7.67,7.67,0,0,1,533.48,734Z"/><path class="cls-2" d="M467.12,373.59,416.58,739.88s-22.19,5.35-39.45,1.07c0,0-14.8-194.81-13.56-241.91S353,373,366.27,364.32,467.12,373.59,467.12,373.59Z"/><path class="cls-8" d="M359.88,154.19s53.11-34.35,91.21-16.78c6.07,2.8,13,10.61,18,16.07,13.77,15.17,40.68,256.2,40.68,256.2s-76.38,25.87-149.84-8.78Z"/><path class="cls-7" d="M454.11,136.54s53.77,22,61,39,31,120.91,31,133.1-41.21,2.73-47.84-16.94c-5.51-16.33-24.1-66.49-33.89-98.22Z"/><path class="cls-3" d="M442.94,153.33c-11.73,2.3-29-.15-41.6-8.47,5.7-13.62,8-24.37,8.87-31.32l.12-1.08a32,32,0,0,0,.14-7.17h30.35s8.3,3.79,8.3,6.41c0,1.41,0,2.75,0,4,.06,3.49.2,6.54.38,9.15a83,83,0,0,0,1.56,12.53S454.8,151,442.94,153.33Z"/><path class="cls-20" d="M449.53,124.88c-23,4.44-36.33-8.12-39.32-11.34-.43-.46-.65-.74-.65-.74l.77-.34c8.56-3.46,28-.71,38.82,3.27C449.21,119.22,449.35,122.27,449.53,124.88Z"/><path class="cls-3" d="M402.7,100.3c4.11,22.11,32.63,21.39,45,20,3.47-.39,5.66-.83,5.66-.83,3.91-1,6.09-7.21,7.11-15.28,2-16-.53-39.42-3.23-45.42-4.06-9-11.71-18.79-40.44-11.74S397.43,72,402.7,100.3Z"/><path class="cls-6" d="M458.27,46.44C454.34,41,446,34.36,438.45,30.26c-16.24-8.78-37,.28-37.12.32-23.47,10.32-29.6,28.27-17.16,56.24,13.16,29.58,25.69,26.25,25.69,26.25s-2.66-1.66-2.42-10.87c0-.53,0-1,.06-1.34a6.22,6.22,0,0,0-2-5c-2.91-2.6-4.34-10.47-1.89-12.66,2.94-2.64,7.08.57,8.4,3a3.61,3.61,0,0,0,5.15,1.14c7.3-4.62,2.56-13.86,9.54-19.51s21.14-.9,31.61-5.41C472.06,57.31,461.23,50.53,458.27,46.44Z"/><path class="cls-7" d="M461.54,510.81c-4.63,1.19-9.2,2.16-13.76,2.92-4,.68-8,1.19-12,1.53-22.72,2-45.56-1.22-72.24-8.87q-9-2.59-18.67-5.85c-.68-.23,1.76-70.79,4.57-143.58.29-7.51.59-15.06.88-22.55.13-3.17.25-6.33.38-9.48,2.55-64.37,5.08-122.51,5.61-125.64,1.22-7.08,2.37-13.12,3.61-18.35,3.63-15.25,8.15-23.62,18-30.81,1-.73,8.83-4.7,15.78-8.15,5.75-2.86,10.86-5.35,10.86-5.35h0c2.29,1.12,5,6.36,7.91,13.72,5.29,13.57,11,34.35,15,49.87,0,.05,0,.07,0,.08h0c2.56,10,4.39,17.82,4.91,20.06.89,3.79,2.06,11.1,3.44,21,1.86,13.5,4.1,31.83,6.46,52.63.24,2.13.48,4.3.73,6.49.28,2.49.56,5,.84,7.56l.27,2.46c.91,8.24,1.83,16.74,2.74,25.38.75,7.15,11.59,12.31,12.33,19.58.44,4.26,1.34,43.63,2.49,56.19C462.46,420.66,461.86,506.59,461.54,510.81Z"/><path class="cls-21" d="M383.15,225.24c0,.15-1.84,65.1,47,73s16.39,10,16.39,10-91.92-3.9-93.44-6.33S383.15,225.24,383.15,225.24Z"/><path class="cls-21" d="M424.43,326.11s-.92.65-2.68,1.78l-.09.06c-7.45,4.76-29.57,17.73-61.78,26.42q-5.07,1.38-10.48,2.59c.29-7.51.59-15.06.88-22.55a93.82,93.82,0,0,1-12.11-1.67l.39-3c4.1-1.68,8.17-3.3,12.1-4.84,3.19-1.25,6.29-2.44,9.22-3.54,13.23-5,23-8.43,23-8.43l39.16,12.4Z"/><path class="cls-7" d="M434.8,325s-5,1.26-13.05,2.87l-.08,0c-14.77,3-39.61,7.13-61.79,6.91-3.27,0-6.49-.16-9.6-.41a93.82,93.82,0,0,1-12.11-1.67c-8.11-1.71-14.9-4.61-19.34-9.14-33-33.61,18-154.24,28.73-166,12.52-13.7,35.37-18.51,48-20.16l1.52-.19c4.44-.53,7.28-.64,7.44-.64h0s-1,3.18-2.65,8.57c-.64,2.09-1.39,4.51-2.21,7.21-7.75,25.38-22.7,75.26-29.29,103.4-2.42,10.29-3.71,17.67-3.12,19.87,2.57,9.61,29.23,14.55,46.12,16.73,7.05.91,12.4,1.35,13.59,1.44a1,1,0,0,1,.25,0l1,4,2.33,9.61,2.3,9.44Z"/><polygon class="cls-1" points="526.83 382.85 413.5 378.07 436.5 236.84 549.82 241.61 526.83 382.85"/><path class="cls-3" d="M427.21,293.87s22.06-1.54,23.17,3.6c2.58,12-19,21.83-25.95,21.16S422.13,293.07,427.21,293.87Z"/><path class="cls-3" d="M543.63,270.29s-21.11-6.6-23.38-1.85C515,279.5,533.66,294.06,540.6,295S548.75,270.69,543.63,270.29Z"/><path class="cls-21" d="M406.81,129.53s-9.28,4.43-13.94,11.1c0,0,34.69,60.24,34.54,59.67S415.68,137.25,406.81,129.53Z"/><path class="cls-21" d="M450,130.38c3.05,1.16,8.91,7.16,10.23,10.48l4.13,52.58s-8.81-38.59-13.29-56A29.24,29.24,0,0,1,450,130.38Z"/><path class="cls-18" d="M474.06,238.42s.9-3.92,6.06-3.46,34.14,1.88,34.14,1.88,5.58-.09,5.07,3.49Z"/><path class="cls-8" d="M440.82,105.29a12.1,12.1,0,0,0,9.83,2.37c3.6-.63,5.61-5.31,5.61-5.31S449.35,101.1,440.82,105.29Z"/><rect class="cls-9" x="374.04" y="179.18" width="29.34" height="13.16"/></svg>